# xmcd
#
# Track frame offsets: 
#        150
#        14298
#        26641
#        36794
#        49265
#        59888
#        70637
#        81595
#        93711
#        104867
#        120226
#        127893
#
# Disc length: 1862 seconds
#
# Revision: 2
# Processed by: cddbd v1.5.2PL0 Copyright (c) Steve Scherf et al.
# Submitted via: ExactAudioCopy v1.0b1
#
DISCID=a907440c
DTITLE=Porter Wagoner - Me And My Boys
DYEAR=1969
DGENRE=Country
TTITLE0=My Boys
TTITLE1=Tennessee Stud
TTITLE2=Big Wind
TTITLE3=What I'd Give to Hear a Baby Cry
TTITLE4=Through This World of Mine
TTITLE5=Peace on Earth Begins Today
TTITLE6=My Ramblin' Boy
TTITLE7=A Picture from Life's Other Side
TTITLE8=Shuckin' Corn
TTITLE9=House of Shame
TTITLE10=He's a Go Getter
TTITLE11=I Coudn't Wait Forever
EXTD=
EXTT0=
EXTT1=
EXTT2=
EXTT3=
EXTT4=
EXTT5=
EXTT6=
EXTT7=
EXTT8=
EXTT9=
EXTT10=
EXTT11=
PLAYORDER=
